<svg width="400" height="400" viewBox="0 0 400 400" fill="none" xmlns="http://www.w3.org/2000/svg">
<rect width="400" height="400" rx="40" fill="#0F0F0F"/>
<g clip-path="url(#clip0_1575_22717)">
<path fill-rule="evenodd" clip-rule="evenodd" d="M69.7266 172.27V138.668C95.1611 138.668 115.644 118.184 115.644 92.5488H149.247C149.247 136.682 113.684 172.27 69.7266 172.27Z" fill="#F43F5E"/>
<path fill-rule="evenodd" clip-rule="evenodd" d="M250.023 92.5488H283.626C283.626 118.184 304.285 138.668 329.745 138.668V172.27C285.813 172.27 250.049 136.682 250.049 92.5488H250.023Z" fill="#F43F5E"/>
<path fill-rule="evenodd" clip-rule="evenodd" d="M199.739 262.697C164.578 289.539 120.822 305.825 73.1195 306.629H69.7266V273.027C110.266 273.027 147.84 259.706 177.848 237.036C185.991 229.27 193.154 220.725 199.714 211.803C206.098 220.725 213.437 229.27 221.379 237.036C251.588 259.681 289.162 273.027 329.701 273.027V306.403L326.133 306.604C278.631 305.8 234.875 289.489 199.714 262.672L199.739 262.697Z" fill="#F43F5E"/>
<path fill-rule="evenodd" clip-rule="evenodd" d="M224.193 194.74C215.472 185.767 207.882 175.437 201.725 164.53C200.946 163.323 200.317 162.142 199.739 160.936C199.161 162.142 198.332 163.323 197.754 164.53C172.696 209.241 124.617 239.451 69.7266 239.451V205.848C132.157 205.848 182.85 155.18 182.85 92.5742H216.453C216.453 118.185 224.998 141.659 239.097 160.534C259.757 188.18 292.756 205.848 329.752 205.848V239.451C288.408 239.451 250.834 222.335 224.193 194.74Z" fill="#F43F5E"/>
</g>
<defs>
<clipPath id="clip0_1575_22717">
<rect width="260" height="214.082" fill="white" transform="translate(69.7266 92.5488)"/>
</clipPath>
</defs>
</svg>
